<?xml version="1.0" encoding="utf-8"?>
<!-- Generator: Adobe Illustrator 20.0.0, SVG Export Plug-In . SVG Version: 6.00 Build 0)  -->
<svg version="1.1" id="Layer_1" xmlns="http://www.w3.org/2000/svg" xmlns:xlink="http://www.w3.org/1999/xlink" x="0px" y="0px"
	 viewBox="0 0 50 50" style="enable-background:new 0 0 50 50;" xml:space="preserve">
<line style="fill:none;stroke:#28353D;stroke-width:3;stroke-linecap:round;stroke-miterlimit:10;" x1="25" y1="2" x2="43" y2="20"/>
<path style="fill:none;stroke:#28353D;stroke-width:3;stroke-linecap:round;stroke-miterlimit:10;" d="M43,20v24.5
	c0,1.9-1.6,3.5-3.5,3.5h-29C8.6,48,7,46.4,7,44.5v-39C7,3.6,8.6,2,10.5,2H25"/>
<path style="fill:none;stroke:#28353D;stroke-width:3;stroke-linecap:round;stroke-miterlimit:10;" d="M43,20H28.5
	c-1.9,0-3.5-1.6-3.5-3.5V2"/>
<line style="fill:none;stroke:#28353D;stroke-width:2;stroke-linecap:round;stroke-miterlimit:10;" x1="25" y1="35.3" x2="25" y2="27.3"/>
<line style="fill:none;stroke:#28353D;stroke-width:2;stroke-linecap:round;stroke-miterlimit:10;" x1="20.9" y1="30.3" x2="25.1" y2="26.1"/>
<line style="fill:none;stroke:#28353D;stroke-width:2;stroke-linecap:round;stroke-miterlimit:10;" x1="29.3" y1="30.3" x2="25.1" y2="26.1"/>
<line style="fill:none;stroke:#28353D;stroke-width:2;stroke-linecap:round;stroke-miterlimit:10;" x1="16.9" y1="35.3" x2="16.9" y2="40"/>
<line style="fill:none;stroke:#28353D;stroke-width:2;stroke-linecap:round;stroke-miterlimit:10;" x1="33.1" y1="35.3" x2="33.1" y2="40"/>
<line style="fill:none;stroke:#28353D;stroke-width:2;stroke-linecap:round;stroke-miterlimit:10;" x1="16.9" y1="40" x2="33.1" y2="40"/>
</svg>
